<?xml version="1.0" encoding="UTF-8" standalone="no"?>
<!-- Created with Inkscape (http://www.inkscape.org/) -->

<svg
   xmlns:dc="http://purl.org/dc/elements/1.1/"
   xmlns:cc="http://creativecommons.org/ns#"
   xmlns:rdf="http://www.w3.org/1999/02/22-rdf-syntax-ns#"
   xmlns:svg="http://www.w3.org/2000/svg"
   xmlns="http://www.w3.org/2000/svg"
   xmlns:sodipodi="http://sodipodi.sourceforge.net/DTD/sodipodi-0.dtd"
   xmlns:inkscape="http://www.inkscape.org/namespaces/inkscape"
   width="32"
   height="32"
   id="svg2"
   version="1.1"
   inkscape:version="0.48.4 r9939"
   sodipodi:docname="favicon.svg"
   inkscape:export-filename="/home/kuba/projects/jcubic/leash/favicon.png"
   inkscape:export-xdpi="90"
   inkscape:export-ydpi="90">
  <defs
     id="defs4" />
  <sodipodi:namedview
     id="base"
     pagecolor="#ffffff"
     bordercolor="#666666"
     borderopacity="1.0"
     inkscape:pageopacity="0.0"
     inkscape:pageshadow="2"
     inkscape:zoom="3.959798"
     inkscape:cx="11.542775"
     inkscape:cy="10.858928"
     inkscape:document-units="px"
     inkscape:current-layer="layer1"
     showgrid="false"
     fit-margin-top="0"
     fit-margin-left="0"
     fit-margin-right="0"
     fit-margin-bottom="0"
     inkscape:window-width="1124"
     inkscape:window-height="533"
     inkscape:window-x="238"
     inkscape:window-y="33"
     inkscape:window-maximized="0" />
  <metadata
     id="metadata7">
    <rdf:RDF>
      <cc:Work
         rdf:about="">
        <dc:format>image/svg+xml</dc:format>
        <dc:type
           rdf:resource="http://purl.org/dc/dcmitype/StillImage" />
        <dc:title></dc:title>
      </cc:Work>
    </rdf:RDF>
  </metadata>
  <g
     inkscape:label="Layer 1"
     inkscape:groupmode="layer"
     id="layer1"
     transform="translate(8.5714283,-237.50504)">
    <rect
       style="color:#000000;fill:#000000;fill-opacity:1;fill-rule:nonzero;stroke:none;stroke-width:1.24199998;marker:none;visibility:visible;display:inline;overflow:visible;enable-background:accumulate"
       id="rect2985"
       width="32"
       height="32"
       x="-8.5714283"
       y="237.50504" />
    <path
       sodipodi:type="inkscape:offset"
       inkscape:radius="0.28234622"
       inkscape:original="M 49.8125 1.65625 L 49.8125 2.46875 L 54.625 2.46875 L 59.40625 2.46875 L 59.40625 1.65625 L 54.625 1.65625 L 49.8125 1.65625 z M 48.75 5.3125 C 48.65406 5.3125 48.58987 5.3217 48.53125 5.375 C 48.47262 5.42297 48.40237 5.52301 48.34375 5.65625 L 45.78125 11.0625 C 45.7173 11.19041 45.6875 11.3004 45.6875 11.375 C 45.687499 11.47626 45.73256 11.58165 45.8125 11.65625 C 45.89244 11.73616 45.987157 11.75 46.09375 11.75 C 46.18968 11.75 46.25387 11.7408 46.3125 11.6875 C 46.37645 11.63953 46.44137 11.53949 46.5 11.40625 L 49.0625 5.96875 C 49.12645 5.84084 49.15625 5.7568 49.15625 5.6875 C 49.156246 5.58624 49.11119 5.5121 49.03125 5.4375 C 48.951301 5.35758 48.856589 5.31251 48.75 5.3125 z M 58.34375 5.3125 C 58.24781 5.3125 58.18362 5.3217 58.125 5.375 C 58.06637 5.42297 57.99612 5.52301 57.9375 5.65625 L 55.375 11.0625 C 55.31105 11.19041 55.28125 11.3004 55.28125 11.375 C 55.281249 11.47626 55.3263 11.58165 55.40625 11.65625 C 55.48619 11.73616 55.580907 11.75 55.6875 11.75 C 55.78343 11.75 55.84762 11.7408 55.90625 11.6875 C 55.9702 11.63953 56.03512 11.53949 56.09375 11.40625 L 58.65625 5.96875 C 58.7202 5.84084 58.749996 5.7568 58.75 5.6875 C 58.749996 5.58624 58.70494 5.5121 58.625 5.4375 C 58.54505 5.35758 58.450339 5.31251 58.34375 5.3125 z M 43.96875 15.3125 C 43.87281 15.3125 43.80862 15.3217 43.75 15.375 C 43.69137 15.42297 43.62112 15.52301 43.5625 15.65625 L 41 21.0625 C 40.93605 21.19041 40.90625 21.3004 40.90625 21.375 C 40.90625 21.47626 40.9513 21.5504 41.03125 21.625 C 41.11119 21.70491 41.205906 21.75 41.3125 21.75 C 41.40843 21.75 41.47262 21.7408 41.53125 21.6875 C 41.5952 21.63953 41.66012 21.53949 41.71875 21.40625 L 44.28125 15.96875 C 44.3452 15.84084 44.375 15.7568 44.375 15.6875 C 44.374996 15.58624 44.32994 15.48085 44.25 15.40625 C 44.17005 15.32633 44.075339 15.31251 43.96875 15.3125 z M 53.5625 15.3125 C 53.46656 15.3125 53.37112 15.3217 53.3125 15.375 C 53.25387 15.42297 53.21487 15.52301 53.15625 15.65625 L 50.59375 21.0625 C 50.5298 21.19041 50.5 21.3004 50.5 21.375 C 50.499999 21.47626 50.5138 21.5504 50.59375 21.625 C 50.67369 21.70491 50.768407 21.75 50.875 21.75 C 50.97093 21.75 51.06637 21.7408 51.125 21.6875 C 51.18895 21.63953 51.25387 21.53949 51.3125 21.40625 L 53.875 15.96875 C 53.93895 15.84084 53.96875 15.7568 53.96875 15.6875 C 53.968746 15.58624 53.92369 15.48085 53.84375 15.40625 C 53.7638 15.32633 53.669089 15.31251 53.5625 15.3125 z M 54.625 21.65625 L 54.625 22.4375 L 59.40625 22.4375 L 64.21875 22.4375 L 64.21875 21.65625 L 59.40625 21.65625 L 54.625 21.65625 z M 39.1875 25.28125 C 39.09156 25.28135 38.99612 25.3217 38.9375 25.375 C 38.87887 25.42297 38.83987 25.52301 38.78125 25.65625 L 36.21875 31.0625 C 36.1548 31.19041 36.093749 31.3004 36.09375 31.375 C 36.093749 31.47626 36.1388 31.5504 36.21875 31.625 C 36.29869 31.70491 36.393407 31.75 36.5 31.75 C 36.59593 31.75 36.69137 31.70955 36.75 31.65625 C 36.81395 31.60828 36.87887 31.53949 36.9375 31.40625 L 39.46875 25.96875 C 39.5327 25.84084 39.5625 25.7568 39.5625 25.6875 C 39.562496 25.58624 39.54869 25.48085 39.46875 25.40625 C 39.3888 25.32633 39.294089 25.28126 39.1875 25.28125 z M 63.15625 25.28125 C 63.06031 25.28135 62.96487 25.3217 62.90625 25.375 C 62.84762 25.42297 62.80862 25.52301 62.75 25.65625 L 60.15625 31.0625 C 60.0923 31.19041 60.0625 31.3004 60.0625 31.375 C 60.062499 31.47626 60.10755 31.5504 60.1875 31.625 C 60.26744 31.70491 60.362156 31.75 60.46875 31.75 C 60.56468 31.75 60.66012 31.70955 60.71875 31.65625 C 60.7827 31.60828 60.81637 31.53949 60.875 31.40625 L 63.4375 25.96875 C 63.50145 25.84084 63.53125 25.7568 63.53125 25.6875 C 63.531246 25.58624 63.51744 25.48085 63.4375 25.40625 C 63.35755 25.32633 63.262839 25.28126 63.15625 25.28125 z M 40.25 31.65625 L 40.25 32.4375 L 45.03125 32.4375 L 49.8125 32.4375 L 54.625 32.4375 L 59.40625 32.4375 L 59.40625 31.65625 L 54.625 31.65625 L 49.8125 31.65625 L 45.03125 31.65625 L 40.25 31.65625 z "
       style="font-size:7.99447203px;font-style:normal;font-variant:normal;font-weight:bold;font-stretch:normal;line-height:125%;letter-spacing:0px;word-spacing:0px;fill:#ffffff;fill-opacity:1;stroke:none;font-family:FreeMono;-inkscape-font-specification:FreeMono Bold"
       id="path3103"
       d="m 49.71875,1.375 a 0.28237445,0.28237445 0 0 0 -0.03125,0.03125 0.28237445,0.28237445 0 0 0 -0.15625,0.1875 0.28237445,0.28237445 0 0 0 0,0.0625 l 0,0.8125 a 0.28237445,0.28237445 0 0 0 0.03125,0.125 0.28237445,0.28237445 0 0 0 0.1875,0.15625 0.28237445,0.28237445 0 0 0 0.0625,0 l 4.8125,0 4.78125,0 a 0.28237445,0.28237445 0 0 0 0.125,-0.03125 0.28237445,0.28237445 0 0 0 0.15625,-0.1875 0.28237445,0.28237445 0 0 0 0,-0.0625 l 0,-0.8125 a 0.28237445,0.28237445 0 0 0 -0.03125,-0.125 0.28237445,0.28237445 0 0 0 -0.1875,-0.15625 0.28237445,0.28237445 0 0 0 -0.0625,0 l -4.78125,0 -4.8125,0 a 0.28237445,0.28237445 0 0 0 -0.09375,0 z M 48.75,5.03125 c -0.11399,0 -0.283688,0.013561 -0.40625,0.125 -0.121981,0.099802 -0.178874,0.2133353 -0.25,0.375 l -2.5625,5.40625 c -0.07721,0.154437 -0.125,0.287709 -0.125,0.4375 -2e-6,0.175319 0.09395,0.342173 0.21875,0.46875 l 0.03125,0 c 0.144407,0.126251 0.313998,0.1875 0.4375,0.1875 0.105972,0 0.255067,-0.03248 0.375,-0.125 l 0,-0.03125 c 0.126437,-0.10292 0.216316,-0.196183 0.28125,-0.34375 l 2.5625,-5.4375 c 0.07038,-0.1407746 0.125,-0.256008 0.125,-0.40625 -7e-6,-0.1748803 -0.115996,-0.3341361 -0.21875,-0.4375 -0.0066,-0.00664 -0.0243,0.00642 -0.03125,0 C 49.067589,5.1391629 48.925973,5.0312665 48.75,5.03125 z m 9.59375,0 c -0.11399,0 -0.283688,0.013561 -0.40625,0.125 -0.121981,0.099802 -0.178874,0.2133353 -0.25,0.375 L 55.125,10.9375 C 55.047788,11.091937 55,11.225209 55,11.375 c -2e-6,0.175301 0.09393,0.342164 0.21875,0.46875 l 0.03125,0 c 0.144407,0.126251 0.313998,0.1875 0.4375,0.1875 0.105972,0 0.255067,-0.03248 0.375,-0.125 l 0,-0.03125 c 0.126437,-0.10292 0.216316,-0.196183 0.28125,-0.34375 l 2.5625,-5.4375 c 0.07038,-0.1407788 0.124991,-0.2560321 0.125,-0.40625 -7e-6,-0.1748803 -0.115996,-0.3341361 -0.21875,-0.4375 -0.0066,-0.00664 -0.0243,0.00642 -0.03125,0 -0.119911,-0.1108354 -0.261527,-0.2187335 -0.4375,-0.21875 z m -14.375,10 c -0.11399,0 -0.283688,0.01356 -0.40625,0.125 -0.121981,0.0998 -0.178874,0.213335 -0.25,0.375 L 40.75,20.9375 c -0.07721,0.154437 -0.125,0.287709 -0.125,0.4375 0,0.174875 0.115978,0.334128 0.21875,0.4375 l 0.03125,0 c 0.119895,0.110824 0.261477,0.21875 0.4375,0.21875 0.105972,0 0.255067,-0.03248 0.375,-0.125 l 0,-0.03125 c 0.126437,-0.10292 0.216316,-0.196183 0.28125,-0.34375 l 2.5625,-5.4375 c 0.07038,-0.140775 0.125,-0.256008 0.125,-0.40625 -7e-6,-0.175301 -0.09395,-0.34217 -0.21875,-0.46875 -0.0085,-0.0085 -0.02244,0.0077 -0.03125,0 -0.144419,-0.126259 -0.314049,-0.187488 -0.4375,-0.1875 z m 9.59375,0 c -0.11399,0 -0.277984,-0.02004 -0.4375,0.125 -0.160037,0.130939 -0.16252,0.247192 -0.21875,0.375 l -2.5625,5.40625 c -0.07721,0.154437 -0.125,0.287709 -0.125,0.4375 -10e-7,0.119622 0.06854,0.309939 0.1875,0.4375 l 0.03125,0 c 0.119896,0.110825 0.261478,0.21875 0.4375,0.21875 0.106455,0 0.256659,-0.0079 0.40625,-0.125 l 0,-0.03125 c 0.126437,-0.10292 0.216316,-0.196183 0.28125,-0.34375 l 2.5625,-5.4375 c 0.07038,-0.140775 0.125,-0.256008 0.125,-0.40625 -7e-6,-0.175301 -0.09395,-0.34217 -0.21875,-0.46875 -0.0085,-0.0085 -0.02244,0.0077 -0.03125,0 -0.144419,-0.126259 -0.314049,-0.187488 -0.4375,-0.1875 z M 54.53125,21.375 A 0.28237445,0.28237445 0 0 0 54.5,21.40625 a 0.28237445,0.28237445 0 0 0 -0.15625,0.1875 0.28237445,0.28237445 0 0 0 0,0.0625 l 0,0.78125 a 0.28237445,0.28237445 0 0 0 0.03125,0.125 0.28237445,0.28237445 0 0 0 0.1875,0.15625 0.28237445,0.28237445 0 0 0 0.0625,0 l 4.78125,0 4.8125,0 A 0.28237445,0.28237445 0 0 0 64.34375,22.6875 0.28237445,0.28237445 0 0 0 64.5,22.5 a 0.28237445,0.28237445 0 0 0 0,-0.0625 l 0,-0.78125 a 0.28237445,0.28237445 0 0 0 -0.03125,-0.125 0.28237445,0.28237445 0 0 0 -0.1875,-0.15625 0.28237445,0.28237445 0 0 0 -0.0625,0 l -4.8125,0 -4.78125,0 a 0.28237445,0.28237445 0 0 0 -0.09375,0 z M 39.1875,25 c -0.17491,1.82e-4 -0.318497,0.04805 -0.4375,0.15625 -0.160037,0.130939 -0.16252,0.247192 -0.21875,0.375 l -2.5625,5.40625 c -0.06076,0.121528 -0.156253,0.208852 -0.15625,0.4375 -2e-6,0.174878 0.115979,0.334129 0.21875,0.4375 l 0.03125,0 c 0.119896,0.110825 0.261478,0.21875 0.4375,0.21875 0.164195,0 0.291711,-0.06088 0.40625,-0.15625 l 0,-0.03125 c 0.0903,-0.07198 0.210195,-0.151023 0.28125,-0.3125 l 2.53125,-5.4375 c 0.07038,-0.140775 0.125,-0.256008 0.125,-0.40625 -5e-6,-0.121528 -0.04115,-0.3172 -0.1875,-0.46875 -0.0066,-0.0066 -0.0243,0.0064 -0.03125,0 C 39.505089,25.107915 39.363473,25.000017 39.1875,25 z m 23.96875,0 c -0.17491,1.82e-4 -0.318497,0.04805 -0.4375,0.15625 -0.160037,0.130939 -0.16252,0.247192 -0.21875,0.375 l -2.59375,5.40625 c -0.07721,0.154437 -0.125,0.287709 -0.125,0.4375 -2e-6,0.174878 0.115979,0.334129 0.21875,0.4375 l 0.03125,0 c 0.119895,0.110824 0.261477,0.21875 0.4375,0.21875 0.164195,0 0.291711,-0.06088 0.40625,-0.15625 l 0,-0.03125 c 0.113819,-0.09478 0.193332,-0.183718 0.25,-0.3125 l 2.5625,-5.4375 c 0.07038,-0.140775 0.125,-0.256008 0.125,-0.40625 -5e-6,-0.121528 -0.04115,-0.3172 -0.1875,-0.46875 -0.0066,-0.0066 -0.0243,0.0064 -0.03125,0 C 63.473839,25.107915 63.332223,25.000017 63.15625,25 z m -23,6.375 a 0.28237445,0.28237445 0 0 0 -0.03125,0.03125 0.28237445,0.28237445 0 0 0 -0.15625,0.1875 0.28237445,0.28237445 0 0 0 0,0.0625 l 0,0.78125 A 0.28237445,0.28237445 0 0 0 40,32.5625 a 0.28237445,0.28237445 0 0 0 0.1875,0.15625 0.28237445,0.28237445 0 0 0 0.0625,0 l 4.78125,0 4.78125,0 4.8125,0 4.78125,0 a 0.28237445,0.28237445 0 0 0 0.125,-0.03125 0.28237445,0.28237445 0 0 0 0.15625,-0.1875 0.28237445,0.28237445 0 0 0 0,-0.0625 l 0,-0.78125 a 0.28237445,0.28237445 0 0 0 -0.03125,-0.125 0.28237445,0.28237445 0 0 0 -0.1875,-0.15625 0.28237445,0.28237445 0 0 0 -0.0625,0 l -4.78125,0 -4.8125,0 -4.78125,0 -4.78125,0 a 0.28237445,0.28237445 0 0 0 -0.09375,0 z"
       transform="matrix(0.89436952,0,0,0.89436952,-37.430425,238.25981)" />
  </g>
</svg>
